<svg xmlns="http://www.w3.org/2000/svg" xmlns:xlink="http://www.w3.org/1999/xlink" width="1000px" height="500px" viewBox="0 0 1000 500" zoomAndPan="disable" preserveAspectRatio="none">
    <style type="text/css"><![CDATA[
        .petal {
            fill: rgba(255, 250, 250, 0.1);

        }
		@keyframes rotate {
            0% { transform: rotate(0deg); }
            100% { transform: rotate(360deg); }
        }
		#petals {
            transform-origin: 750px 250px;
            animation: rotate 40s linear infinite;
        }

		.stem {
            fill: none;
            stroke: rgba(255, 250, 250, 0.05);
            stroke-width: 8;
        }

		@media screen and (max-width: 1280px){
			.stem{
				display:none;
			}
			#petals{
				display:none;
			}
		}
    ]]></style>
    
    
    <!-- Petals -->
    <path d="M 750 270 C 800 350, 650 400, 750 450" class="stem" />
    <g id="petals">
        <ellipse cx="750" cy="200" rx="20" ry="30" transform="rotate(0 750 250)" class="petal"/>
        <ellipse cx="750" cy="200" rx="20" ry="30" transform="rotate(22.5 750 250)" class="petal"/>
        <ellipse cx="750" cy="200" rx="20" ry="30" transform="rotate(45 750 250)" class="petal"/>
        <ellipse cx="750" cy="200" rx="20" ry="30" transform="rotate(67.5 750 250)" class="petal"/>
        <ellipse cx="750" cy="200" rx="20" ry="30" transform="rotate(90 750 250)" class="petal"/>
        <ellipse cx="750" cy="200" rx="20" ry="30" transform="rotate(112.5 750 250)" class="petal"/>
        <ellipse cx="750" cy="200" rx="20" ry="30" transform="rotate(135 750 250)" class="petal"/>
        <ellipse cx="750" cy="200" rx="20" ry="30" transform="rotate(157.5 750 250)" class="petal"/>
        <ellipse cx="750" cy="200" rx="20" ry="30" transform="rotate(180 750 250)" class="petal"/>
        <ellipse cx="750" cy="200" rx="20" ry="30" transform="rotate(202.5 750 250)" class="petal"/>
        <ellipse cx="750" cy="200" rx="20" ry="30" transform="rotate(225 750 250)" class="petal"/>
        <ellipse cx="750" cy="200" rx="20" ry="30" transform="rotate(247.5 750 250)" class="petal"/>
        <ellipse cx="750" cy="200" rx="20" ry="30" transform="rotate(270 750 250)" class="petal"/>
        <ellipse cx="750" cy="200" rx="20" ry="30" transform="rotate(292.5 750 250)" class="petal"/>
        <ellipse cx="750" cy="200" rx="20" ry="30" transform="rotate(315 750 250)" class="petal"/>
        <ellipse cx="750" cy="200" rx="20" ry="30" transform="rotate(337.5 750 250)" class="petal"/>
    </g>

        <ellipse cx="700" cy="500" rx="12" ry="22" transform="rotate(45 820 530)" class="petal"/>
        <ellipse cx="700" cy="500" rx="12" ry="22" transform="rotate(292.5 620 458)" class="petal"/>
	
	 <!-- Curved Stem -->

</svg>

